<svg xmlns="http://www.w3.org/2000/svg" width="32" height="32" viewBox="0 0 32 32" shape-rendering="crispEdges">
  <rect width="32" height="32" fill="#31a9c4"/>
  <rect x="0" y="0" width="16" height="16" fill="#39b4cb"/>
  <rect x="16" y="16" width="16" height="16" fill="#39b4cb"/>
  <rect x="0" y="15" width="32" height="1" fill="#66c9db"/>
  <rect x="15" y="0" width="1" height="32" fill="#66c9db"/>

  <rect x="11" y="10" width="10" height="12" fill="#f9cb55"/>
  <rect x="10" y="9" width="12" height="1" fill="#fee7a0"/>
  <rect x="10" y="22" width="12" height="1" fill="#b5800d"/>
  <rect x="10" y="10" width="1" height="12" fill="#fee7a0"/>
  <rect x="21" y="10" width="1" height="12" fill="#b5800d"/>

  <rect x="13" y="12" width="6" height="6" fill="#7b5510"/>
  <rect x="14" y="13" width="4" height="4" fill="#f8e9bc"/>

  <rect x="9" y="11" width="1" height="2" fill="#cca04a"/>
  <rect x="9" y="14" width="1" height="2" fill="#cca04a"/>
  <rect x="9" y="17" width="1" height="2" fill="#cca04a"/>
  <rect x="22" y="11" width="1" height="2" fill="#cca04a"/>
  <rect x="22" y="14" width="1" height="2" fill="#cca04a"/>
  <rect x="22" y="17" width="1" height="2" fill="#cca04a"/>
</svg>
