<svg xmlns="http://www.w3.org/2000/svg" width="32" height="32" viewBox="0 0 32 32" shape-rendering="crispEdges">
  <rect width="32" height="32" fill="#274866"/>
  <rect x="0" y="0" width="32" height="2" fill="#3c6489"/>
  <rect x="0" y="30" width="32" height="2" fill="#1c3247"/>
  <rect x="0" y="0" width="2" height="32" fill="#3c6489"/>
  <rect x="30" y="0" width="2" height="32" fill="#1c3247"/>

  <rect x="2" y="4" width="12" height="7" fill="#305679"/>
  <rect x="15" y="4" width="15" height="7" fill="#31587e"/>
  <rect x="2" y="13" width="15" height="7" fill="#2d5073"/>
  <rect x="18" y="13" width="12" height="7" fill="#325a7f"/>
  <rect x="2" y="22" width="12" height="6" fill="#2e5274"/>
  <rect x="15" y="22" width="15" height="6" fill="#345d83"/>

  <rect x="2" y="11" width="28" height="1" fill="#1e3850"/>
  <rect x="2" y="20" width="28" height="1" fill="#1e3850"/>
  <rect x="14" y="4" width="1" height="7" fill="#1e3850"/>
  <rect x="17" y="13" width="1" height="7" fill="#1e3850"/>
  <rect x="14" y="22" width="1" height="6" fill="#1e3850"/>
</svg>
